<?xml version="1.0" encoding="utf-8"?>
<!-- Generator: Adobe Illustrator 24.1.3, SVG Export Plug-In . SVG Version: 6.00 Build 0)  -->
<svg version="1.1" id="Layer_1" xmlns="http://www.w3.org/2000/svg" xmlns:xlink="http://www.w3.org/1999/xlink" x="0px" y="0px"
	 viewBox="0 0 50 50" style="enable-background:new 0 0 50 50;" xml:space="preserve">
<style type="text/css">
	.st0{fill:#E3A700;}
	.st1{fill:#FFFFFF;}
	.st2{font-family:'MyriadPro-Regular';}
	.st3{font-size:22.4754px;}
</style>
<g>
	<g>
		<g>
			<g>
				<g>
					<path class="st0" d="M37.14,45.85c-0.75-0.29-1.25-0.44-1.7-0.67c-1.09-0.56-2.17-1.12-3.23-1.74
						c-0.86-0.5-1.43-0.45-1.81,0.58c-0.41,1.11-0.89,2.2-1.38,3.27c-0.18,0.39-0.47,0.73-0.86,1.32c-0.73-1.78-1.19-3.38-2-4.79
						c-1.25-2.18-0.6-4.15,0.27-6.16c0.11-0.26,0.59-0.52,0.9-0.53c1.58-0.05,2.82-0.67,3.82-1.9c0.91-1.11,1.45-0.97,1.98,0.33
						c1.19,2.93,2.42,5.85,3.62,8.77C36.91,44.73,36.96,45.15,37.14,45.85z"/>
				</g>
				<g>
					<path class="st0" d="M21.52,46c-0.54-1.25-1.02-2.32-1.47-3.4c-1.18-2.78-0.91-2.32-3.19-1.2c-0.87,0.43-1.71,0.92-2.57,1.36
						c-0.37,0.19-0.76,0.32-1.43,0.59c0.14-0.69,0.18-1.13,0.33-1.53c0.83-2.22,1.72-4.42,2.53-6.65c0.34-0.93,0.87-0.96,1.55-0.5
						c0.35,0.23,0.64,0.57,0.92,0.89c1.42,1.64,3.14,2.03,5.14,1.15c0.29-0.13,0.63-0.32,0.91-0.27c0.23,0.04,0.62,0.46,0.57,0.6
						c-0.89,2.84-1.83,5.67-2.78,8.49C21.99,45.64,21.83,45.71,21.52,46z"/>
				</g>
			</g>
		</g>
		<g>
			<path class="st0" d="M35.84,28.68L35.84,28.68L35.84,28.68c-0.36,2.75-3.14,4.5-5.78,3.63h0l0,0c-1.52,2.33-4.78,2.69-6.78,0.77
				l0,0l0,0c-2.38,1.44-5.48,0.35-6.44-2.25l0,0h0c-2.77,0.26-5.09-2.06-4.83-4.82v0l0,0c-2.61-0.96-3.69-4.06-2.26-6.44l0,0l0,0
				c-1.93-2-1.56-5.26,0.76-6.78l0,0l0,0c-0.87-2.64,0.87-5.42,3.63-5.78l0,0l0,0c0.36-2.75,3.14-4.5,5.78-3.63l0,0l0,0
				c1.52-2.33,4.78-2.69,6.78-0.77l0,0l0,0c2.38-1.44,5.48-0.35,6.44,2.25l0,0l0,0c2.77-0.26,5.09,2.06,4.83,4.82v0l0,0
				c2.61,0.96,3.69,4.06,2.26,6.44l0,0l0,0c1.93,2,1.56,5.26-0.76,6.78l0,0l0,0C40.34,25.54,38.6,28.32,35.84,28.68z"/>
		</g>
		<g>
			<path class="st1" d="M25,5.49c6.83,0,12.36,5.53,12.36,12.36S31.83,30.21,25,30.21s-12.36-5.53-12.36-12.36S18.17,5.49,25,5.49
				 M25,4.99c-7.09,0-12.86,5.77-12.86,12.86S17.91,30.71,25,30.71s12.86-5.77,12.86-12.86S32.09,4.99,25,4.99L25,4.99z"/>
		</g>
	</g>
	<text transform="matrix(1 0 0 1 18.8303 25.1634)" class="st1 st2 st3">1</text>
</g>
</svg>
