<?xml version="1.0" encoding="utf-8"?>
<!-- Generator: Adobe Illustrator 24.1.3, SVG Export Plug-In . SVG Version: 6.00 Build 0)  -->
<svg version="1.1" id="Layer_1" xmlns="http://www.w3.org/2000/svg" xmlns:xlink="http://www.w3.org/1999/xlink" x="0px" y="0px"
	 viewBox="0 0 50 50" style="enable-background:new 0 0 50 50;" xml:space="preserve">
<style type="text/css">
	.st0{fill:#7F7F7F;}
	.st1{fill:#FFFFFF;}
	.st2{font-family:'ArialMT';}
	.st3{font-size:22.4754px;}
</style>
<g>
	<g>
		<g>
			<g>
				<g>
					<path class="st0" d="M37.1,45.8c-0.8-0.3-1.3-0.4-1.7-0.7c-1.1-0.6-2.2-1.1-3.2-1.7c-0.9-0.5-1.4-0.5-1.8,0.6
						c-0.4,1.1-0.9,2.2-1.4,3.3c-0.2,0.4-0.5,0.7-0.9,1.3c-0.7-1.8-1.2-3.4-2-4.8c-1.3-2.2-0.6-4.2,0.3-6.2c0.1-0.3,0.6-0.5,0.9-0.5
						c1.6,0,2.8-0.7,3.8-1.9c0.9-1.1,1.4-1,2,0.3c1.2,2.9,2.4,5.8,3.6,8.8C36.9,44.7,37,45.2,37.1,45.8z"/>
				</g>
				<g>
					<path class="st0" d="M21.5,46c-0.5-1.3-1-2.3-1.5-3.4c-1.2-2.8-0.9-2.3-3.2-1.2c-0.9,0.4-1.7,0.9-2.6,1.4
						c-0.4,0.2-0.8,0.3-1.4,0.6c0.1-0.7,0.2-1.1,0.3-1.5c0.8-2.2,1.7-4.4,2.5-6.7c0.3-0.9,0.9-1,1.6-0.5c0.4,0.2,0.6,0.6,0.9,0.9
						c1.4,1.6,3.1,2,5.1,1.2c0.3-0.1,0.6-0.3,0.9-0.3c0.2,0,0.6,0.5,0.6,0.6c-0.9,2.8-1.8,5.7-2.8,8.5C22,45.6,21.8,45.7,21.5,46z"
						/>
				</g>
			</g>
		</g>
		<g>
			<path class="st0" d="M35.8,28.7L35.8,28.7L35.8,28.7c-0.4,2.8-3.1,4.5-5.8,3.6l0,0l0,0c-1.5,2.3-4.8,2.7-6.8,0.8l0,0l0,0
				c-2.4,1.4-5.5,0.3-6.4-2.3l0,0l0,0c-2.8,0.3-5.1-2.1-4.8-4.8l0,0l0,0c-2.6-1-3.7-4.1-2.3-6.4l0,0l0,0c-1.9-2-1.6-5.3,0.8-6.8l0,0
				l0,0c-0.9-2.6,0.9-5.4,3.6-5.8l0,0l0,0c0.4-2.8,3.1-4.5,5.8-3.6l0,0l0,0c1.5-2.3,4.8-2.7,6.8-0.8l0,0l0,0
				c2.4-1.4,5.5-0.3,6.4,2.3l0,0l0,0c2.8-0.3,5.1,2.1,4.8,4.8l0,0l0,0c2.6,1,3.7,4.1,2.3,6.4l0,0l0,0c1.9,2,1.6,5.3-0.8,6.8l0,0l0,0
				C40.3,25.5,38.6,28.3,35.8,28.7z"/>
		</g>
		<g>
			<path class="st1" d="M25,5.5c6.8,0,12.4,5.5,12.4,12.4S31.8,30.2,25,30.2s-12.4-5.5-12.4-12.4S18.2,5.5,25,5.5 M25,5
				c-7.1,0-12.9,5.8-12.9,12.9S17.9,30.7,25,30.7s12.9-5.8,12.9-12.9S32.1,5,25,5L25,5z"/>
		</g>
	</g>
	<text transform="matrix(1 0 0 1 18.8303 25.1634)" class="st1 st2 st3">2</text>
</g>
</svg>
